<svg xmlns="http://www.w3.org/2000/svg" viewBox="0 0 512 512" width="512" height="512">
  <defs>
    <linearGradient id="grad" x1="0%" y1="0%" x2="100%" y2="100%">
      <stop offset="0%" style="stop-color:#022c22;stop-opacity:1" />
      <stop offset="100%" style="stop-color:#064e3b;stop-opacity:1" />
    </linearGradient>
  </defs>
  <rect width="512" height="512" rx="128" fill="url(#grad)" />
  <!-- Book / Quran stand motif with gold and light styling -->
  <path d="M140,240 C190,270 240,290 256,290 C272,290 322,270 372,240" fill="none" stroke="#f59e0b" stroke-width="24" stroke-linecap="round" />
  <path d="M140,340 C190,310 240,290 256,290 C272,290 322,310 372,340" fill="none" stroke="#f59e0b" stroke-width="24" stroke-linecap="round" />
  <path d="M256,200 L256,260" stroke="#fbbf24" stroke-width="16" stroke-linecap="round" />
  <!-- Glow or light lines -->
  <path d="M256,120 L256,150" stroke="#fbbf24" stroke-width="12" stroke-linecap="round" />
  <path d="M210,140 L230,160" stroke="#fbbf24" stroke-width="12" stroke-linecap="round" />
  <path d="M302,140 L282,160" stroke="#fbbf24" stroke-width="12" stroke-linecap="round" />
  <circle cx="256" cy="180" r="14" fill="#fbbf24" />
  <!-- Border contour -->
  <rect x="24" y="24" width="464" height="464" rx="104" fill="none" stroke="#fbbf24" stroke-width="12" stroke-opacity="0.2" />
</svg>
